<svg width="0" height="0" class="hidden">
  <symbol xmlns="http://www.w3.org/2000/svg" fill="currentColor" viewBox="0 0 16 16" id="database">
    <path d="M4.318 2.687C5.234 2.271 6.536 2 8 2s2.766.27 3.682.687C12.644 3.125 13 3.627 13 4c0 .374-.356.875-1.318 1.313C10.766 5.729 9.464 6 8 6s-2.766-.27-3.682-.687C3.356 4.875 3 4.373 3 4c0-.374.356-.875 1.318-1.313M13 5.698V7c0 .374-.356.875-1.318 1.313C10.766 8.729 9.464 9 8 9s-2.766-.27-3.682-.687C3.356 7.875 3 7.373 3 7V5.698c.271.202.58.378.904.525C4.978 6.711 6.427 7 8 7s3.022-.289 4.096-.777A5 5 0 0 0 13 5.698M14 4c0-1.007-.875-1.755-1.904-2.223C11.022 1.289 9.573 1 8 1s-3.022.289-4.096.777C2.875 2.245 2 2.993 2 4v9c0 1.007.875 1.755 1.904 2.223C4.978 15.71 6.427 16 8 16s3.022-.289 4.096-.777C13.125 14.755 14 14.007 14 13zm-1 4.698V10c0 .374-.356.875-1.318 1.313C10.766 11.729 9.464 12 8 12s-2.766-.27-3.682-.687C3.356 10.875 3 10.373 3 10V8.698c.271.202.58.378.904.525C4.978 9.71 6.427 10 8 10s3.022-.289 4.096-.777A5 5 0 0 0 13 8.698m0 3V13c0 .374-.356.875-1.318 1.313C10.766 14.729 9.464 15 8 15s-2.766-.27-3.682-.687C3.356 13.875 3 13.373 3 13v-1.302c.271.202.58.378.904.525C4.978 12.71 6.427 13 8 13s3.022-.289 4.096-.777c.324-.147.633-.323.904-.525"></path>
  </symbol>
  <symbol xmlns="http://www.w3.org/2000/svg" fill="currentColor" viewBox="0 0 16 16" id="eye">
    <path d="M16 8s-3-5.5-8-5.5S0 8 0 8s3 5.5 8 5.5S16 8 16 8M1.173 8a13 13 0 0 1 1.66-2.043C4.12 4.668 5.88 3.5 8 3.5s3.879 1.168 5.168 2.457A13 13 0 0 1 14.828 8q-.086.13-.195.288c-.335.48-.83 1.12-1.465 1.755C11.879 11.332 10.119 12.5 8 12.5s-3.879-1.168-5.168-2.457A13 13 0 0 1 1.172 8z"></path>
    <path d="M8 5.5a2.5 2.5 0 1 0 0 5 2.5 2.5 0 0 0 0-5M4.5 8a3.5 3.5 0 1 1 7 0 3.5 3.5 0 0 1-7 0"></path>
  </symbol>
  <symbol xmlns="http://www.w3.org/2000/svg" fill="currentColor" viewBox="0 0 16 16" id="boxes">
    <path d="M7.752.066a.5.5 0 0 1 .496 0l3.75 2.143a.5.5 0 0 1 .252.434v3.995l3.498 2A.5.5 0 0 1 16 9.07v4.286a.5.5 0 0 1-.252.434l-3.75 2.143a.5.5 0 0 1-.496 0l-3.502-2-3.502 2.001a.5.5 0 0 1-.496 0l-3.75-2.143A.5.5 0 0 1 0 13.357V9.071a.5.5 0 0 1 .252-.434L3.75 6.638V2.643a.5.5 0 0 1 .252-.434zM4.25 7.504 1.508 9.071l2.742 1.567 2.742-1.567zM7.5 9.933l-2.75 1.571v3.134l2.75-1.571zm1 3.134 2.75 1.571v-3.134L8.5 9.933zm.508-3.996 2.742 1.567 2.742-1.567-2.742-1.567zm2.242-2.433V3.504L8.5 5.076V8.21zM7.5 8.21V5.076L4.75 3.504v3.134zM5.258 2.643 8 4.21l2.742-1.567L8 1.076zM15 9.933l-2.75 1.571v3.134L15 13.067zM3.75 14.638v-3.134L1 9.933v3.134z"></path>
  </symbol>
  <symbol xmlns="http://www.w3.org/2000/svg" fill="currentColor" viewBox="0 0 16 16" id="folder">
    <path d="M.54 3.87.5 3a2 2 0 0 1 2-2h3.672a2 2 0 0 1 1.414.586l.828.828A2 2 0 0 0 9.828 3h3.982a2 2 0 0 1 1.992 2.181l-.637 7A2 2 0 0 1 13.174 14H2.826a2 2 0 0 1-1.991-1.819l-.637-7a2 2 0 0 1 .342-1.31zM2.19 4a1 1 0 0 0-.996 1.09l.637 7a1 1 0 0 0 .995.91h10.348a1 1 0 0 0 .995-.91l.637-7A1 1 0 0 0 13.81 4zm4.69-1.707A1 1 0 0 0 6.172 2H2.5a1 1 0 0 0-1 .981l.006.139q.323-.119.684-.12h5.396z"></path>
  </symbol>
  <symbol xmlns="http://www.w3.org/2000/svg" fill="currentColor" viewBox="0 0 16 16" id="graph-up">
    <path fill-rule="evenodd" d="M0 0h1v15h15v1H0zm14.817 3.113a.5.5 0 0 1 .07.704l-4.5 5.5a.5.5 0 0 1-.74.037L7.06 6.767l-3.656 5.027a.5.5 0 0 1-.808-.588l4-5.5a.5.5 0 0 1 .758-.06l2.609 2.61 4.15-5.073a.5.5 0 0 1 .704-.07"></path>
  </symbol>
  <symbol xmlns="http://www.w3.org/2000/svg" fill="currentColor" viewBox="0 0 16 16" id="hdd-rack">
    <path d="M4.5 5a.5.5 0 1 0 0-1 .5.5 0 0 0 0 1M3 4.5a.5.5 0 1 1-1 0 .5.5 0 0 1 1 0m2 7a.5.5 0 1 1-1 0 .5.5 0 0 1 1 0m-2.5.5a.5.5 0 1 0 0-1 .5.5 0 0 0 0 1"></path>
    <path d="M2 2a2 2 0 0 0-2 2v1a2 2 0 0 0 2 2h1v2H2a2 2 0 0 0-2 2v1a2 2 0 0 0 2 2h12a2 2 0 0 0 2-2v-1a2 2 0 0 0-2-2h-1V7h1a2 2 0 0 0 2-2V4a2 2 0 0 0-2-2zm13 2v1a1 1 0 0 1-1 1H2a1 1 0 0 1-1-1V4a1 1 0 0 1 1-1h12a1 1 0 0 1 1 1m0 7v1a1 1 0 0 1-1 1H2a1 1 0 0 1-1-1v-1a1 1 0 0 1 1-1h12a1 1 0 0 1 1 1m-3-4v2H4V7z"></path>
  </symbol>
  <symbol xmlns="http://www.w3.org/2000/svg" fill="currentColor" viewBox="0 0 16 16" id="journal-text">
    <path d="M5 10.5a.5.5 0 0 1 .5-.5h2a.5.5 0 0 1 0 1h-2a.5.5 0 0 1-.5-.5m0-2a.5.5 0 0 1 .5-.5h5a.5.5 0 0 1 0 1h-5a.5.5 0 0 1-.5-.5m0-2a.5.5 0 0 1 .5-.5h5a.5.5 0 0 1 0 1h-5a.5.5 0 0 1-.5-.5m0-2a.5.5 0 0 1 .5-.5h5a.5.5 0 0 1 0 1h-5a.5.5 0 0 1-.5-.5"></path>
    <path d="M3 0h10a2 2 0 0 1 2 2v12a2 2 0 0 1-2 2H3a2 2 0 0 1-2-2v-1h1v1a1 1 0 0 0 1 1h10a1 1 0 0 0 1-1V2a1 1 0 0 0-1-1H3a1 1 0 0 0-1 1v1H1V2a2 2 0 0 1 2-2"></path>
    <path d="M1 5v-.5a.5.5 0 0 1 1 0V5h.5a.5.5 0 0 1 0 1h-2a.5.5 0 0 1 0-1zm0 3v-.5a.5.5 0 0 1 1 0V8h.5a.5.5 0 0 1 0 1h-2a.5.5 0 0 1 0-1zm0 3v-.5a.5.5 0 0 1 1 0v.5h.5a.5.5 0 0 1 0 1h-2a.5.5 0 0 1 0-1z"></path>
  </symbol>
  <symbol xmlns="http://www.w3.org/2000/svg" fill="currentColor" viewBox="0 0 16 16" id="lightning">
    <path d="M5.52.359A.5.5 0 0 1 6 0h4a.5.5 0 0 1 .474.658L8.694 6H12.5a.5.5 0 0 1 .395.807l-7 9a.5.5 0 0 1-.873-.454L6.823 9.5H3.5a.5.5 0 0 1-.48-.641zM6.374 1 4.168 8.5H7.5a.5.5 0 0 1 .478.647L6.78 13.04 11.478 7H8a.5.5 0 0 1-.474-.658L9.306 1z"></path>
  </symbol>
  <symbol xmlns="http://www.w3.org/2000/svg" fill="currentColor" viewBox="0 0 16 16" id="people">
    <path d="M15 14s1 0 1-1-1-4-5-4-5 3-5 4 1 1 1 1zm-7.978-1L7 12.996c.001-.264.167-1.03.76-1.72C8.312 10.629 9.282 10 11 10c1.717 0 2.687.63 3.24 1.276.593.69.758 1.457.76 1.72l-.008.002-.014.002zM11 7a2 2 0 1 0 0-4 2 2 0 0 0 0 4m3-2a3 3 0 1 1-6 0 3 3 0 0 1 6 0M6.936 9.28a6 6 0 0 0-1.23-.247A7 7 0 0 0 5 9c-4 0-5 3-5 4q0 1 1 1h4.216A2.24 2.24 0 0 1 5 13c0-1.01.377-2.042 1.09-2.904.243-.294.526-.569.846-.816M4.92 10A5.5 5.5 0 0 0 4 13H1c0-.26.164-1.03.76-1.724.545-.636 1.492-1.256 3.16-1.275ZM1.5 5.5a3 3 0 1 1 6 0 3 3 0 0 1-6 0m3-2a2 2 0 1 0 0 4 2 2 0 0 0 0-4"></path>
  </symbol>
  <symbol xmlns="http://www.w3.org/2000/svg" fill="currentColor" viewBox="0 0 16 16" id="terminal">
    <path d="M6 9a.5.5 0 0 1 .5-.5h3a.5.5 0 0 1 0 1h-3A.5.5 0 0 1 6 9M3.854 4.146a.5.5 0 1 0-.708.708L4.793 6.5 3.146 8.146a.5.5 0 1 0 .708.708l2-2a.5.5 0 0 0 0-.708z"></path>
    <path d="M2 1a2 2 0 0 0-2 2v10a2 2 0 0 0 2 2h12a2 2 0 0 0 2-2V3a2 2 0 0 0-2-2zm12 1a1 1 0 0 1 1 1v10a1 1 0 0 1-1 1H2a1 1 0 0 1-1-1V3a1 1 0 0 1 1-1z"></path>
  </symbol>
</svg>