<svg xmlns="http://www.w3.org/2000/svg" version="1.1" xmlns:xlink="http://www.w3.org/1999/xlink" xmlns:svgjs="http://svgjs.com/svgjs" width="1000" height="1000"><style>
    #light-icon {
      display: inline;
    }
    #dark-icon {
      display: none;
    }

    @media (prefers-color-scheme: dark) {
      #light-icon {
        display: none;
      }
      #dark-icon {
        display: inline;
      }
    }
  </style><g id="light-icon"><svg xmlns="http://www.w3.org/2000/svg" version="1.1" xmlns:xlink="http://www.w3.org/1999/xlink" xmlns:svgjs="http://svgjs.com/svgjs" width="1000" height="1000"><rect width="1000" height="1000" rx="250" ry="250" fill="#000000"></rect><g transform="matrix(20,0,0,20,250,200)"><svg xmlns="http://www.w3.org/2000/svg" version="1.1" xmlns:xlink="http://www.w3.org/1999/xlink" xmlns:svgjs="http://svgjs.com/svgjs" width="25" height="30"><svg width="25" height="30" viewBox="0 0 25 30" fill="none" xmlns="http://www.w3.org/2000/svg">
<path d="M25 5.3164V30H19.263V17.1511H5.77889V30H0V20.8757L5.77889 17.1511L14.1366 12.0624H19.263V8.88202L25 5.3164Z" fill="white"></path>
<path d="M24.8856 0L19.3021 3.43839L5.81804 11.4566L0.039153 15.0222V0H5.81804V11.4566L19.3021 3.43839V0H24.8856Z" fill="white"></path>
</svg></svg></g></svg></g><g id="dark-icon"><svg xmlns="http://www.w3.org/2000/svg" version="1.1" xmlns:xlink="http://www.w3.org/1999/xlink" xmlns:svgjs="http://svgjs.com/svgjs" width="1000" height="1000"><rect width="1000" height="1000" rx="250" ry="250" fill="#ffffff"></rect><g transform="matrix(20,0,0,20,250,200)"><svg xmlns="http://www.w3.org/2000/svg" version="1.1" xmlns:xlink="http://www.w3.org/1999/xlink" xmlns:svgjs="http://svgjs.com/svgjs" width="25" height="30"><svg width="25" height="30" viewBox="0 0 25 30" fill="none" xmlns="http://www.w3.org/2000/svg">
<path d="M25 5.3164V30H19.263V17.1511H5.77889V30H0V20.8757L5.77889 17.1511L14.1366 12.0624H19.263V8.88202L25 5.3164Z" fill="black"></path>
<path d="M24.8856 0L19.3021 3.43839L5.81804 11.4566L0.039153 15.0222V0H5.81804V11.4566L19.3021 3.43839V0H24.8856Z" fill="black"></path>
</svg></svg></g></svg></g></svg>